<mxfile host="app.diagrams.net" modified="2022-05-18T03:46:26.042Z" agent="5.0 (Windows NT 10.0; Win64; x64) AppleWebKit/537.36 (KHTML, like Gecko) Chrome/101.0.4951.54 Safari/537.36" etag="6xf_x-COkPM4meRx37yC" version="18.0.7" type="github">
  <diagram name="Page-1" id="74e2e168-ea6b-b213-b513-2b3c1d86103e">
    <mxGraphModel dx="1580" dy="5563" grid="1" gridSize="10" guides="1" tooltips="1" connect="1" arrows="1" fold="1" page="1" pageScale="1" pageWidth="3300" pageHeight="4681" math="0" shadow="0">
      <root>
        <mxCell id="0" />
        <mxCell id="1" parent="0" />
        <mxCell id="77e6c97f196da883-1" value="&lt;h2&gt;&lt;font style=&quot;font-size: 20px;&quot; color=&quot;#ffffff&quot;&gt;BN Ticket Search Report&lt;/font&gt;&lt;/h2&gt;" style="swimlane;html=1;childLayout=stackLayout;startSize=40;rounded=0;shadow=0;labelBackgroundColor=none;strokeWidth=1;fontFamily=Verdana;fontSize=8;align=center;fillColor=#21C0A5;strokeColor=#006658;fontColor=#5C5C5C;" parent="1" vertex="1">
          <mxGeometry x="120" y="-10" width="1550" height="440" as="geometry" />
        </mxCell>
        <mxCell id="77e6c97f196da883-2" value="&lt;h3&gt;&lt;font color=&quot;#ffffff&quot; style=&quot;font-size: 14px;&quot; face=&quot;Verdana&quot;&gt;Cs Share Drive&lt;/font&gt;&lt;/h3&gt;" style="swimlane;html=1;startSize=30;fillColor=#21C0A5;strokeColor=#006658;fontColor=#5C5C5C;" parent="77e6c97f196da883-1" vertex="1">
          <mxGeometry y="40" width="330" height="400" as="geometry" />
        </mxCell>
        <mxCell id="77e6c97f196da883-8" value="&lt;font style=&quot;font-size: 13px;&quot; color=&quot;#ffffff&quot;&gt;Copy &lt;b style=&quot;text-decoration-line: underline;&quot;&gt;TS_team_pending_ticket.xlsm&lt;/b&gt;&amp;nbsp;&lt;br&gt;from share drive to local desktop&lt;/font&gt;" style="rounded=1;whiteSpace=wrap;html=1;shadow=0;labelBackgroundColor=none;strokeWidth=1;fontFamily=Verdana;fontSize=8;align=center;fillColor=#21C0A5;strokeColor=#006658;fontColor=#5C5C5C;" parent="77e6c97f196da883-2" vertex="1">
          <mxGeometry x="50" y="50" width="240" height="80" as="geometry" />
        </mxCell>
        <mxCell id="YZDCr7jV72YmqT_dEJ2x-28" value="&lt;h3&gt;&lt;font color=&quot;#ffffff&quot; style=&quot;font-size: 14px;&quot; face=&quot;Verdana&quot;&gt;Windows Desktop&lt;/font&gt;&lt;/h3&gt;" style="swimlane;html=1;startSize=30;fillColor=#21C0A5;strokeColor=#006658;fontColor=#5C5C5C;" vertex="1" parent="77e6c97f196da883-1">
          <mxGeometry x="330" y="40" width="220" height="400" as="geometry" />
        </mxCell>
        <mxCell id="YZDCr7jV72YmqT_dEJ2x-29" value="&lt;font color=&quot;#ffffff&quot;&gt;&lt;span style=&quot;font-size: 13px;&quot;&gt;Open Chrome&lt;/span&gt;&lt;/font&gt;" style="rounded=1;whiteSpace=wrap;html=1;shadow=0;labelBackgroundColor=none;strokeWidth=1;fontFamily=Verdana;fontSize=8;align=center;fillColor=#21C0A5;strokeColor=#006658;fontColor=#5C5C5C;" vertex="1" parent="YZDCr7jV72YmqT_dEJ2x-28">
          <mxGeometry x="35" y="70" width="150" height="40" as="geometry" />
        </mxCell>
        <mxCell id="YZDCr7jV72YmqT_dEJ2x-30" style="edgeStyle=orthogonalEdgeStyle;curved=0;rounded=1;sketch=0;orthogonalLoop=1;jettySize=auto;html=1;fontFamily=Verdana;fontSize=13;fontColor=#FFFFFF;strokeColor=#006658;fillColor=#21C0A5;" edge="1" parent="77e6c97f196da883-1" source="77e6c97f196da883-8" target="YZDCr7jV72YmqT_dEJ2x-29">
          <mxGeometry relative="1" as="geometry" />
        </mxCell>
        <mxCell id="YZDCr7jV72YmqT_dEJ2x-31" value="&lt;h3&gt;&lt;font face=&quot;Verdana&quot; color=&quot;#ffffff&quot;&gt;&lt;span style=&quot;font-size: 14px;&quot;&gt;Chrome&lt;/span&gt;&lt;/font&gt;&lt;/h3&gt;" style="swimlane;html=1;startSize=30;fillColor=#21C0A5;strokeColor=#006658;fontColor=#5C5C5C;" vertex="1" parent="77e6c97f196da883-1">
          <mxGeometry x="550" y="40" width="220" height="400" as="geometry" />
        </mxCell>
        <mxCell id="YZDCr7jV72YmqT_dEJ2x-32" value="&lt;font color=&quot;#ffffff&quot;&gt;&lt;span style=&quot;font-size: 13px;&quot;&gt;Open Jasper&lt;/span&gt;&lt;/font&gt;" style="rounded=1;whiteSpace=wrap;html=1;shadow=0;labelBackgroundColor=none;strokeWidth=1;fontFamily=Verdana;fontSize=8;align=center;fillColor=#21C0A5;strokeColor=#006658;fontColor=#5C5C5C;" vertex="1" parent="YZDCr7jV72YmqT_dEJ2x-31">
          <mxGeometry x="35" y="70" width="150" height="40" as="geometry" />
        </mxCell>
        <mxCell id="YZDCr7jV72YmqT_dEJ2x-33" style="edgeStyle=orthogonalEdgeStyle;curved=0;rounded=1;sketch=0;orthogonalLoop=1;jettySize=auto;html=1;entryX=0;entryY=0.5;entryDx=0;entryDy=0;fontFamily=Verdana;fontSize=13;fontColor=#FFFFFF;strokeColor=#006658;fillColor=#21C0A5;" edge="1" parent="77e6c97f196da883-1" source="YZDCr7jV72YmqT_dEJ2x-29" target="YZDCr7jV72YmqT_dEJ2x-32">
          <mxGeometry relative="1" as="geometry" />
        </mxCell>
      </root>
    </mxGraphModel>
  </diagram>
</mxfile>
